<?xml version="1.0" encoding="UTF-8" standalone="no"?>
<!DOCTYPE svg PUBLIC "-//W3C//DTD SVG 1.1//EN"
 "http://www.w3.org/Graphics/SVG/1.1/DTD/svg11.dtd">
<!-- Generated by graphviz version 14.1.5 (20260411.2331)
 -->
<!-- Title: physical_graph Pages: 1 -->
<svg width="555pt" height="498pt"
 viewBox="0.00 0.00 555.00 498.00" xmlns="http://www.w3.org/2000/svg" xmlns:xlink="http://www.w3.org/1999/xlink">
<g id="graph0" class="graph" transform="scale(1 1) rotate(0) translate(4 494.41)">
<title>physical_graph</title>
<polygon fill="white" stroke="none" points="-4,4 -4,-494.41 551.17,-494.41 551.17,4 -4,4"/>
<!-- i1 -->
<g id="node1" class="node">
<title>i1</title>
<ellipse fill="none" stroke="blue" cx="38.36" cy="-302.1" rx="38.36" ry="37.48"/>
<text xml:space="preserve" text-anchor="middle" x="38.36" y="-315.1" font-family="Times,serif" font-size="10.00" fill="blue">i1 ([&#39;v1&#39;]) </text>
<text xml:space="preserve" text-anchor="middle" x="38.36" y="-303.85" font-family="Times,serif" font-size="10.00" fill="blue"> c: 2.0/5 </text>
<text xml:space="preserve" text-anchor="middle" x="38.36" y="-292.6" font-family="Times,serif" font-size="10.00" fill="blue"> m: 2.0/5 </text>
<text xml:space="preserve" text-anchor="middle" x="38.36" y="-281.35" font-family="Times,serif" font-size="10.00" fill="blue"> e: 1</text>
</g>
<!-- i2 -->
<g id="node2" class="node">
<title>i2</title>
<ellipse fill="none" stroke="black" cx="181.52" cy="-468.84" rx="27" ry="21.57"/>
<text xml:space="preserve" text-anchor="middle" x="181.52" y="-470.59" font-family="Times,serif" font-size="10.00">i2 </text>
<text xml:space="preserve" text-anchor="middle" x="181.52" y="-459.34" font-family="Times,serif" font-size="10.00"> e: 2</text>
</g>
<!-- i1&#45;&gt;i2 -->
<g id="edge1" class="edge">
<title>i1&#45;&gt;i2</title>
<path fill="none" stroke="red" d="M58.99,-334.18C84.22,-366.7 126.72,-416.15 154.51,-445.25"/>
<polygon fill="red" stroke="red" points="151.75,-447.43 161.23,-452.15 156.76,-442.54 151.75,-447.43"/>
<text xml:space="preserve" text-anchor="middle" x="96.25" y="-391.46" font-family="Times,serif" font-size="10.00" fill="red">2.0/5</text>
</g>
<!-- i3 -->
<g id="node3" class="node">
<title>i3</title>
<ellipse fill="none" stroke="black" cx="198.23" cy="-157.05" rx="27" ry="21.57"/>
<text xml:space="preserve" text-anchor="middle" x="198.23" y="-158.8" font-family="Times,serif" font-size="10.00">i3 </text>
<text xml:space="preserve" text-anchor="middle" x="198.23" y="-147.55" font-family="Times,serif" font-size="10.00"> e: 3</text>
</g>
<!-- i1&#45;&gt;i3 -->
<g id="edge2" class="edge">
<title>i1&#45;&gt;i3</title>
<path fill="none" stroke="black" d="M70.13,-280.42C101.53,-254.64 148.65,-211.81 176.18,-183.94"/>
<polygon fill="black" stroke="black" points="178.56,-186.52 183,-176.9 173.53,-181.65 178.56,-186.52"/>
<text xml:space="preserve" text-anchor="middle" x="120.53" y="-233.93" font-family="Times,serif" font-size="10.00">5</text>
</g>
<!-- i2&#45;&gt;i1 -->
<g id="edge3" class="edge">
<title>i2&#45;&gt;i1</title>
<path fill="none" stroke="black" d="M170.01,-448.82C149.45,-420.76 106.16,-369.61 74.77,-335.7"/>
<polygon fill="black" stroke="black" points="77.49,-333.48 68.1,-328.57 72.38,-338.26 77.49,-333.48"/>
<text xml:space="preserve" text-anchor="middle" x="119.76" y="-394.01" font-family="Times,serif" font-size="10.00">5</text>
</g>
<!-- i4 -->
<g id="node4" class="node">
<title>i4</title>
<ellipse fill="none" stroke="red" cx="346.78" cy="-330.73" rx="51.09" ry="37.48"/>
<text xml:space="preserve" text-anchor="middle" x="346.78" y="-343.73" font-family="Times,serif" font-size="10.00" fill="red">i4 ([&#39;v2&#39;, &#39;v3&#39;]) </text>
<text xml:space="preserve" text-anchor="middle" x="346.78" y="-332.48" font-family="Times,serif" font-size="10.00" fill="red"> c: 4.0/5 </text>
<text xml:space="preserve" text-anchor="middle" x="346.78" y="-321.23" font-family="Times,serif" font-size="10.00" fill="red"> m: 4.0/5 </text>
<text xml:space="preserve" text-anchor="middle" x="346.78" y="-309.98" font-family="Times,serif" font-size="10.00" fill="red"> e: 1</text>
</g>
<!-- i2&#45;&gt;i4 -->
<g id="edge4" class="edge">
<title>i2&#45;&gt;i4</title>
<path fill="none" stroke="red" d="M203.7,-456.2C230.79,-436.67 276.86,-398.78 309.42,-369.68"/>
<polygon fill="red" stroke="red" points="311.61,-372.42 316.68,-363.12 306.92,-367.23 311.61,-372.42"/>
<text xml:space="preserve" text-anchor="middle" x="246.06" y="-414.69" font-family="Times,serif" font-size="10.00" fill="red">2.0/5</text>
</g>
<!-- i3&#45;&gt;i1 -->
<g id="edge5" class="edge">
<title>i3&#45;&gt;i1</title>
<path fill="none" stroke="black" d="M176.87,-170.36C149.67,-191.67 102.6,-233.8 70.94,-264.75"/>
<polygon fill="black" stroke="black" points="68.57,-262.17 63.92,-271.69 73.49,-267.15 68.57,-262.17"/>
<text xml:space="preserve" text-anchor="middle" x="121.28" y="-219.31" font-family="Times,serif" font-size="10.00">5</text>
</g>
<!-- i3&#45;&gt;i4 -->
<g id="edge6" class="edge">
<title>i3&#45;&gt;i4</title>
<path fill="none" stroke="black" d="M209.54,-176.76C230.14,-204.98 274.11,-257.24 306.81,-293.01"/>
<polygon fill="black" stroke="black" points="304.06,-295.19 313.42,-300.16 309.2,-290.44 304.06,-295.19"/>
<text xml:space="preserve" text-anchor="middle" x="255.55" y="-236.64" font-family="Times,serif" font-size="10.00">5</text>
</g>
<!-- i5 -->
<g id="node5" class="node">
<title>i5</title>
<ellipse fill="none" stroke="black" cx="366.28" cy="-21.57" rx="27" ry="21.57"/>
<text xml:space="preserve" text-anchor="middle" x="366.28" y="-23.32" font-family="Times,serif" font-size="10.00">i5 </text>
<text xml:space="preserve" text-anchor="middle" x="366.28" y="-12.07" font-family="Times,serif" font-size="10.00"> e: 2</text>
</g>
<!-- i3&#45;&gt;i5 -->
<g id="edge7" class="edge">
<title>i3&#45;&gt;i5</title>
<path fill="none" stroke="black" d="M220.68,-144.77C252.48,-122.67 310.19,-76.39 342.63,-47.19"/>
<polygon fill="black" stroke="black" points="344.96,-49.81 349.95,-40.46 340.22,-44.65 344.96,-49.81"/>
<text xml:space="preserve" text-anchor="middle" x="279.03" y="-97.73" font-family="Times,serif" font-size="10.00">5</text>
</g>
<!-- i4&#45;&gt;i2 -->
<g id="edge8" class="edge">
<title>i4&#45;&gt;i2</title>
<path fill="none" stroke="black" d="M308.12,-355.7C275.94,-380.44 231.28,-418 204.46,-443.03"/>
<polygon fill="black" stroke="black" points="202.35,-440.22 197.52,-449.65 207.18,-445.29 202.35,-440.22"/>
<text xml:space="preserve" text-anchor="middle" x="253.67" y="-401.12" font-family="Times,serif" font-size="10.00">5</text>
</g>
<!-- i4&#45;&gt;i3 -->
<g id="edge9" class="edge">
<title>i4&#45;&gt;i3</title>
<path fill="none" stroke="black" d="M324.59,-296.64C298.07,-262.54 253.94,-211.05 225.41,-181.03"/>
<polygon fill="black" stroke="black" points="227.97,-178.64 218.5,-173.89 222.94,-183.51 227.97,-178.64"/>
<text xml:space="preserve" text-anchor="middle" x="272.37" y="-240.58" font-family="Times,serif" font-size="10.00">5</text>
</g>
<!-- i6 -->
<g id="node6" class="node">
<title>i6</title>
<ellipse fill="none" stroke="blue" cx="508.81" cy="-188.85" rx="38.36" ry="37.48"/>
<text xml:space="preserve" text-anchor="middle" x="508.81" y="-201.85" font-family="Times,serif" font-size="10.00" fill="blue">i6 ([&#39;v4&#39;]) </text>
<text xml:space="preserve" text-anchor="middle" x="508.81" y="-190.6" font-family="Times,serif" font-size="10.00" fill="blue"> c: 2.0/5 </text>
<text xml:space="preserve" text-anchor="middle" x="508.81" y="-179.35" font-family="Times,serif" font-size="10.00" fill="blue"> m: 2.0/5 </text>
<text xml:space="preserve" text-anchor="middle" x="508.81" y="-168.1" font-family="Times,serif" font-size="10.00" fill="blue"> e: 3</text>
</g>
<!-- i4&#45;&gt;i6 -->
<g id="edge10" class="edge">
<title>i4&#45;&gt;i6</title>
<path fill="none" stroke="red" d="M384.45,-305.21C412.03,-282.99 449.07,-250.63 475.57,-225.63"/>
<polygon fill="red" stroke="red" points="477.87,-228.28 482.68,-218.84 473.03,-223.21 477.87,-228.28"/>
<text xml:space="preserve" text-anchor="middle" x="419.51" y="-267.17" font-family="Times,serif" font-size="10.00" fill="red">2.0/5</text>
</g>
<!-- i5&#45;&gt;i3 -->
<g id="edge11" class="edge">
<title>i5&#45;&gt;i3</title>
<path fill="none" stroke="black" d="M343.83,-33.85C312.03,-55.95 254.32,-102.23 221.88,-131.43"/>
<polygon fill="black" stroke="black" points="219.55,-128.81 214.55,-138.16 224.29,-133.97 219.55,-128.81"/>
<text xml:space="preserve" text-anchor="middle" x="280.23" y="-84.39" font-family="Times,serif" font-size="10.00">5</text>
</g>
<!-- i5&#45;&gt;i6 -->
<g id="edge12" class="edge">
<title>i5&#45;&gt;i6</title>
<path fill="none" stroke="black" d="M377.72,-41.63C398.17,-69.76 441.27,-121.08 472.53,-155.12"/>
<polygon fill="black" stroke="black" points="469.8,-157.32 479.17,-162.26 474.93,-152.55 469.8,-157.32"/>
<text xml:space="preserve" text-anchor="middle" x="422.5" y="-100.12" font-family="Times,serif" font-size="10.00">5</text>
</g>
<!-- i6&#45;&gt;i4 -->
<g id="edge13" class="edge">
<title>i6&#45;&gt;i4</title>
<path fill="none" stroke="black" d="M476.73,-209.91C449.64,-231.36 410.95,-264.96 382.81,-291.33"/>
<polygon fill="black" stroke="black" points="380.76,-288.45 375.9,-297.87 385.57,-293.53 380.76,-288.45"/>
<text xml:space="preserve" text-anchor="middle" x="427.14" y="-252.37" font-family="Times,serif" font-size="10.00">5</text>
</g>
<!-- i6&#45;&gt;i5 -->
<g id="edge14" class="edge">
<title>i6&#45;&gt;i5</title>
<path fill="none" stroke="black" d="M488.3,-156.69C463.2,-124.08 420.88,-74.47 393.2,-45.26"/>
<polygon fill="black" stroke="black" points="395.97,-43.1 386.51,-38.33 390.94,-47.96 395.97,-43.1"/>
<text xml:space="preserve" text-anchor="middle" x="438.12" y="-102.73" font-family="Times,serif" font-size="10.00">5</text>
</g>
</g>
</svg>
