<?xml version="1.0" encoding="UTF-8" standalone="no"?>
<!DOCTYPE svg PUBLIC "-//W3C//DTD SVG 1.1//EN"
 "http://www.w3.org/Graphics/SVG/1.1/DTD/svg11.dtd">
<!-- Generated by graphviz version 14.1.5 (20260411.2331)
 -->
<!-- Title: physical_graph Pages: 1 -->
<svg width="513pt" height="451pt"
 viewBox="0.00 0.00 513.00 451.00" xmlns="http://www.w3.org/2000/svg" xmlns:xlink="http://www.w3.org/1999/xlink">
<g id="graph0" class="graph" transform="scale(1 1) rotate(0) translate(4 447.22)">
<title>physical_graph</title>
<polygon fill="white" stroke="none" points="-4,4 -4,-447.22 509.04,-447.22 509.04,4 -4,4"/>
<!-- i1 -->
<g id="node1" class="node">
<title>i1</title>
<ellipse fill="none" stroke="blue" cx="38.36" cy="-273.41" rx="38.36" ry="29.52"/>
<text xml:space="preserve" text-anchor="middle" x="38.36" y="-280.78" font-family="Times,serif" font-size="10.00" fill="blue">i1 ([&#39;v1&#39;]) </text>
<text xml:space="preserve" text-anchor="middle" x="38.36" y="-269.53" font-family="Times,serif" font-size="10.00" fill="blue"> c: 2.0/5 </text>
<text xml:space="preserve" text-anchor="middle" x="38.36" y="-258.28" font-family="Times,serif" font-size="10.00" fill="blue"> m: 2.0/5</text>
</g>
<!-- i2 -->
<g id="node2" class="node">
<title>i2</title>
<ellipse fill="none" stroke="black" cx="168.7" cy="-425.22" rx="27" ry="18"/>
<text xml:space="preserve" text-anchor="middle" x="168.7" y="-420.17" font-family="Times,serif" font-size="14.00">i2</text>
</g>
<!-- i1&#45;&gt;i2 -->
<g id="edge1" class="edge">
<title>i1&#45;&gt;i2</title>
<path fill="none" stroke="red" d="M54.89,-300.42C77.24,-329.86 117,-376.23 143.18,-403.43"/>
<polygon fill="red" stroke="red" points="140.6,-405.8 150.1,-410.47 145.59,-400.89 140.6,-405.8"/>
<text xml:space="preserve" text-anchor="middle" x="88.53" y="-353.68" font-family="Times,serif" font-size="10.00" fill="red">2.0/5</text>
</g>
<!-- i1&#45;&gt;i2 -->
<g id="edge2" class="edge">
<title>i1&#45;&gt;i2</title>
<path fill="none" stroke="black" d="M64.12,-295.43C90.48,-322.86 130.43,-369.49 152.63,-398.8"/>
<polygon fill="black" stroke="black" points="149.78,-400.84 158.54,-406.81 155.42,-396.68 149.78,-400.84"/>
<text xml:space="preserve" text-anchor="middle" x="105.75" y="-348.87" font-family="Times,serif" font-size="10.00">5</text>
</g>
<!-- i3 -->
<g id="node3" class="node">
<title>i3</title>
<ellipse fill="none" stroke="black" cx="183.91" cy="-141.35" rx="27" ry="18"/>
<text xml:space="preserve" text-anchor="middle" x="183.91" y="-136.3" font-family="Times,serif" font-size="14.00">i3</text>
</g>
<!-- i1&#45;&gt;i3 -->
<g id="edge3" class="edge">
<title>i1&#45;&gt;i3</title>
<path fill="none" stroke="black" d="M63.38,-250.71C90.25,-226.32 132.68,-187.83 159.37,-163.62"/>
<polygon fill="black" stroke="black" points="161.59,-166.32 166.65,-157.01 156.89,-161.14 161.59,-166.32"/>
<text xml:space="preserve" text-anchor="middle" x="108.75" y="-208.91" font-family="Times,serif" font-size="10.00">5</text>
</g>
<!-- i4 -->
<g id="node4" class="node">
<title>i4</title>
<ellipse fill="none" stroke="red" cx="319.16" cy="-299.48" rx="51.09" ry="29.52"/>
<text xml:space="preserve" text-anchor="middle" x="319.16" y="-306.85" font-family="Times,serif" font-size="10.00" fill="red">i4 ([&#39;v2&#39;, &#39;v3&#39;]) </text>
<text xml:space="preserve" text-anchor="middle" x="319.16" y="-295.6" font-family="Times,serif" font-size="10.00" fill="red"> c: 4.0/5 </text>
<text xml:space="preserve" text-anchor="middle" x="319.16" y="-284.35" font-family="Times,serif" font-size="10.00" fill="red"> m: 4.0/5</text>
</g>
<!-- i2&#45;&gt;i4 -->
<g id="edge4" class="edge">
<title>i2&#45;&gt;i4</title>
<path fill="none" stroke="red" d="M189.79,-413.57C215.22,-395.42 258.04,-360.18 287.44,-333.58"/>
<polygon fill="red" stroke="red" points="289.6,-336.35 294.6,-327.01 284.87,-331.19 289.6,-336.35"/>
<text xml:space="preserve" text-anchor="middle" x="228.11" y="-375.33" font-family="Times,serif" font-size="10.00" fill="red">2.0/5</text>
</g>
<!-- i5 -->
<g id="node5" class="node">
<title>i5</title>
<ellipse fill="none" stroke="black" cx="336.91" cy="-18" rx="27" ry="18"/>
<text xml:space="preserve" text-anchor="middle" x="336.91" y="-12.95" font-family="Times,serif" font-size="14.00">i5</text>
</g>
<!-- i3&#45;&gt;i5 -->
<g id="edge5" class="edge">
<title>i3&#45;&gt;i5</title>
<path fill="none" stroke="black" d="M205.24,-130.04C234.45,-109.96 286.38,-68.32 315.58,-41.76"/>
<polygon fill="black" stroke="black" points="317.83,-44.45 322.76,-35.07 313.06,-39.33 317.83,-44.45"/>
<text xml:space="preserve" text-anchor="middle" x="257.79" y="-87.65" font-family="Times,serif" font-size="10.00">5</text>
</g>
<!-- i4&#45;&gt;i2 -->
<g id="edge6" class="edge">
<title>i4&#45;&gt;i2</title>
<path fill="none" stroke="black" d="M284.4,-321.24C255.1,-343.52 214.23,-377.88 189.68,-401.01"/>
<polygon fill="black" stroke="black" points="187.28,-398.46 182.51,-407.93 192.14,-403.5 187.28,-398.46"/>
<text xml:space="preserve" text-anchor="middle" x="234.41" y="-362.87" font-family="Times,serif" font-size="10.00">5</text>
</g>
<!-- i4&#45;&gt;i3 -->
<g id="edge7" class="edge">
<title>i4&#45;&gt;i3</title>
<path fill="none" stroke="black" d="M296.22,-272.65C270.65,-242.76 229.65,-194.83 204.9,-165.89"/>
<polygon fill="black" stroke="black" points="207.62,-163.68 198.46,-158.36 202.3,-168.23 207.62,-163.68"/>
<text xml:space="preserve" text-anchor="middle" x="247.93" y="-221.02" font-family="Times,serif" font-size="10.00">5</text>
</g>
<!-- i6 -->
<g id="node6" class="node">
<title>i6</title>
<ellipse fill="none" stroke="blue" cx="466.68" cy="-170.3" rx="38.36" ry="29.52"/>
<text xml:space="preserve" text-anchor="middle" x="466.68" y="-177.68" font-family="Times,serif" font-size="10.00" fill="blue">i6 ([&#39;v4&#39;]) </text>
<text xml:space="preserve" text-anchor="middle" x="466.68" y="-166.43" font-family="Times,serif" font-size="10.00" fill="blue"> c: 2.0/5 </text>
<text xml:space="preserve" text-anchor="middle" x="466.68" y="-155.18" font-family="Times,serif" font-size="10.00" fill="blue"> m: 2.0/5</text>
</g>
<!-- i4&#45;&gt;i6 -->
<g id="edge8" class="edge">
<title>i4&#45;&gt;i6</title>
<path fill="none" stroke="red" d="M347.6,-274.57C371.97,-253.23 407.12,-222.45 432.92,-199.86"/>
<polygon fill="red" stroke="red" points="434.92,-202.76 440.14,-193.54 430.31,-197.49 434.92,-202.76"/>
<text xml:space="preserve" text-anchor="middle" x="379.76" y="-238.97" font-family="Times,serif" font-size="10.00" fill="red">2.0/5</text>
</g>
<!-- i5&#45;&gt;i3 -->
<g id="edge9" class="edge">
<title>i5&#45;&gt;i3</title>
<path fill="none" stroke="black" d="M315.58,-29.31C286.37,-49.39 234.44,-91.03 205.24,-117.59"/>
<polygon fill="black" stroke="black" points="202.99,-114.9 198.06,-124.28 207.77,-120.02 202.99,-114.9"/>
<text xml:space="preserve" text-anchor="middle" x="257.78" y="-75.2" font-family="Times,serif" font-size="10.00">5</text>
</g>
<!-- i6&#45;&gt;i5 -->
<g id="edge10" class="edge">
<title>i6&#45;&gt;i5</title>
<path fill="none" stroke="black" d="M445.54,-145.49C421.3,-117.05 381.82,-70.71 357.72,-42.43"/>
<polygon fill="black" stroke="black" points="360.61,-40.42 351.46,-35.07 355.28,-44.96 360.61,-40.42"/>
<text xml:space="preserve" text-anchor="middle" x="399" y="-95.71" font-family="Times,serif" font-size="10.00">5</text>
</g>
</g>
</svg>
