<?xml version="1.0" encoding="UTF-8" standalone="no"?>
<!DOCTYPE svg PUBLIC "-//W3C//DTD SVG 1.1//EN"
 "http://www.w3.org/Graphics/SVG/1.1/DTD/svg11.dtd">
<!-- Generated by graphviz version 14.1.5 (20260411.2331)
 -->
<!-- Title: physical_graph Pages: 1 -->
<svg width="596pt" height="518pt"
 viewBox="0.00 0.00 596.00 518.00" xmlns="http://www.w3.org/2000/svg" xmlns:xlink="http://www.w3.org/1999/xlink">
<g id="graph0" class="graph" transform="scale(1 1) rotate(0) translate(4 513.56)">
<title>physical_graph</title>
<polygon fill="white" stroke="none" points="-4,4 -4,-513.56 591.8,-513.56 591.8,4 -4,4"/>
<!-- i1 -->
<g id="node1" class="node">
<title>i1</title>
<ellipse fill="none" stroke="blue" cx="38.36" cy="-454.59" rx="38.36" ry="37.48"/>
<text xml:space="preserve" text-anchor="middle" x="38.36" y="-467.59" font-family="Times,serif" font-size="10.00" fill="blue">i1 ([&#39;v1&#39;]) </text>
<text xml:space="preserve" text-anchor="middle" x="38.36" y="-456.34" font-family="Times,serif" font-size="10.00" fill="blue"> c: 2.0/5 </text>
<text xml:space="preserve" text-anchor="middle" x="38.36" y="-445.09" font-family="Times,serif" font-size="10.00" fill="blue"> m: 2.0/5 </text>
<text xml:space="preserve" text-anchor="middle" x="38.36" y="-433.84" font-family="Times,serif" font-size="10.00" fill="blue"> e: 1</text>
</g>
<!-- i2 -->
<g id="node2" class="node">
<title>i2</title>
<ellipse fill="none" stroke="black" cx="207.18" cy="-381.23" rx="27" ry="21.57"/>
<text xml:space="preserve" text-anchor="middle" x="207.18" y="-382.98" font-family="Times,serif" font-size="10.00">i2 </text>
<text xml:space="preserve" text-anchor="middle" x="207.18" y="-371.73" font-family="Times,serif" font-size="10.00"> e: 2</text>
</g>
<!-- i1&#45;&gt;i2 -->
<g id="edge1" class="edge">
<title>i1&#45;&gt;i2</title>
<path fill="none" stroke="red" d="M75.57,-444.52C105.83,-433.09 147.99,-414.73 176.39,-400.59"/>
<polygon fill="red" stroke="red" points="177.88,-403.75 185.19,-396.09 174.69,-397.52 177.88,-403.75"/>
<text xml:space="preserve" text-anchor="middle" x="115.48" y="-424.3" font-family="Times,serif" font-size="10.00" fill="red">2.0/5</text>
</g>
<!-- i3 -->
<g id="node3" class="node">
<title>i3</title>
<ellipse fill="none" stroke="black" cx="68.09" cy="-287.83" rx="27" ry="21.57"/>
<text xml:space="preserve" text-anchor="middle" x="68.09" y="-289.58" font-family="Times,serif" font-size="10.00">i3 </text>
<text xml:space="preserve" text-anchor="middle" x="68.09" y="-278.33" font-family="Times,serif" font-size="10.00"> e: 3</text>
</g>
<!-- i1&#45;&gt;i3 -->
<g id="edge2" class="edge">
<title>i1&#45;&gt;i3</title>
<path fill="none" stroke="black" d="M50.59,-418.58C57.23,-389.62 64.34,-349.25 67.71,-321.05"/>
<polygon fill="black" stroke="black" points="71.17,-321.6 68.76,-311.29 64.21,-320.86 71.17,-321.6"/>
<text xml:space="preserve" text-anchor="middle" x="56.53" y="-371.57" font-family="Times,serif" font-size="10.00">5</text>
</g>
<!-- i2&#45;&gt;i1 -->
<g id="edge3" class="edge">
<title>i2&#45;&gt;i1</title>
<path fill="none" stroke="black" d="M181.04,-387.24C154.45,-396.64 112.83,-414.3 81.37,-429.28"/>
<polygon fill="black" stroke="black" points="79.97,-426.07 72.5,-433.59 83.02,-432.37 79.97,-426.07"/>
<text xml:space="preserve" text-anchor="middle" x="128.58" y="-410.01" font-family="Times,serif" font-size="10.00">5</text>
</g>
<!-- i4 -->
<g id="node4" class="node">
<title>i4</title>
<ellipse fill="none" stroke="red" cx="390.37" cy="-472.09" rx="51.09" ry="37.48"/>
<text xml:space="preserve" text-anchor="middle" x="390.37" y="-485.09" font-family="Times,serif" font-size="10.00" fill="red">i4 ([&#39;v2&#39;, &#39;v3&#39;]) </text>
<text xml:space="preserve" text-anchor="middle" x="390.37" y="-473.84" font-family="Times,serif" font-size="10.00" fill="red"> c: 4.0/5 </text>
<text xml:space="preserve" text-anchor="middle" x="390.37" y="-462.59" font-family="Times,serif" font-size="10.00" fill="red"> m: 4.0/5 </text>
<text xml:space="preserve" text-anchor="middle" x="390.37" y="-451.34" font-family="Times,serif" font-size="10.00" fill="red"> e: 1</text>
</g>
<!-- i2&#45;&gt;i4 -->
<g id="edge4" class="edge">
<title>i2&#45;&gt;i4</title>
<path fill="none" stroke="red" d="M227.24,-396.29C252.62,-411.29 297.29,-434.05 333.49,-450.82"/>
<polygon fill="red" stroke="red" points="332.01,-453.99 342.56,-454.96 334.92,-447.62 332.01,-453.99"/>
<text xml:space="preserve" text-anchor="middle" x="269.87" y="-425.3" font-family="Times,serif" font-size="10.00" fill="red">2.0/5</text>
</g>
<!-- i5 -->
<g id="node5" class="node">
<title>i5</title>
<ellipse fill="none" stroke="black" cx="292.05" cy="-281.48" rx="27" ry="21.57"/>
<text xml:space="preserve" text-anchor="middle" x="292.05" y="-283.23" font-family="Times,serif" font-size="10.00">i5 </text>
<text xml:space="preserve" text-anchor="middle" x="292.05" y="-271.98" font-family="Times,serif" font-size="10.00"> e: 2</text>
</g>
<!-- i2&#45;&gt;i5 -->
<g id="edge5" class="edge">
<title>i2&#45;&gt;i5</title>
<path fill="none" stroke="black" d="M226.84,-366.41C241.43,-351.75 260.99,-329.07 274.95,-310.79"/>
<polygon fill="black" stroke="black" points="277.64,-313.04 280.78,-302.92 272.02,-308.87 277.64,-313.04"/>
<text xml:space="preserve" text-anchor="middle" x="248.27" y="-340.35" font-family="Times,serif" font-size="10.00">5</text>
</g>
<!-- i6 -->
<g id="node6" class="node">
<title>i6</title>
<ellipse fill="none" stroke="black" cx="190.39" cy="-132.6" rx="27" ry="21.57"/>
<text xml:space="preserve" text-anchor="middle" x="190.39" y="-134.35" font-family="Times,serif" font-size="10.00">i6 </text>
<text xml:space="preserve" text-anchor="middle" x="190.39" y="-123.1" font-family="Times,serif" font-size="10.00"> e: 3</text>
</g>
<!-- i2&#45;&gt;i6 -->
<g id="edge6" class="edge">
<title>i2&#45;&gt;i6</title>
<path fill="none" stroke="black" d="M209.73,-359.33C210.16,-315.48 203.73,-216.7 197.36,-165.21"/>
<polygon fill="black" stroke="black" points="200.87,-165.04 196.08,-155.59 193.93,-165.96 200.87,-165.04"/>
<text xml:space="preserve" text-anchor="middle" x="200.92" y="-264.02" font-family="Times,serif" font-size="10.00">5</text>
</g>
<!-- i3&#45;&gt;i1 -->
<g id="edge7" class="edge">
<title>i3&#45;&gt;i1</title>
<path fill="none" stroke="black" d="M59.54,-308.8C53.13,-333 45.41,-373.58 40.79,-405.8"/>
<polygon fill="black" stroke="black" points="37.38,-404.92 39.5,-415.3 44.32,-405.86 37.38,-404.92"/>
<text xml:space="preserve" text-anchor="middle" x="47.54" y="-359.05" font-family="Times,serif" font-size="10.00">5</text>
</g>
<!-- i3&#45;&gt;i5 -->
<g id="edge8" class="edge">
<title>i3&#45;&gt;i5</title>
<path fill="none" stroke="black" d="M94.79,-291.63C134.43,-293.2 209.03,-291.3 254.27,-287.77"/>
<polygon fill="black" stroke="black" points="254.48,-291.26 264.14,-286.91 253.87,-284.29 254.48,-291.26"/>
<text xml:space="preserve" text-anchor="middle" x="171.9" y="-291.45" font-family="Times,serif" font-size="10.00">5</text>
</g>
<!-- i4&#45;&gt;i2 -->
<g id="edge9" class="edge">
<title>i4&#45;&gt;i2</title>
<path fill="none" stroke="black" d="M352.26,-446.8C320.29,-429.29 274.97,-406.94 243.52,-393.24"/>
<polygon fill="black" stroke="black" points="244.98,-390.05 234.4,-389.37 242.24,-396.5 244.98,-390.05"/>
<text xml:space="preserve" text-anchor="middle" x="295.26" y="-421.77" font-family="Times,serif" font-size="10.00">5</text>
</g>
<!-- i7 -->
<g id="node7" class="node">
<title>i7</title>
<ellipse fill="none" stroke="red" cx="485.41" cy="-311.46" rx="51.09" ry="37.48"/>
<text xml:space="preserve" text-anchor="middle" x="485.41" y="-324.46" font-family="Times,serif" font-size="10.00" fill="red">i7 ([&#39;v4&#39;, &#39;v5&#39;]) </text>
<text xml:space="preserve" text-anchor="middle" x="485.41" y="-313.21" font-family="Times,serif" font-size="10.00" fill="red"> c: 4.0/5 </text>
<text xml:space="preserve" text-anchor="middle" x="485.41" y="-301.96" font-family="Times,serif" font-size="10.00" fill="red"> m: 4.0/5 </text>
<text xml:space="preserve" text-anchor="middle" x="485.41" y="-290.71" font-family="Times,serif" font-size="10.00" fill="red"> e: 1</text>
</g>
<!-- i4&#45;&gt;i7 -->
<g id="edge10" class="edge">
<title>i4&#45;&gt;i7</title>
<path fill="none" stroke="red" d="M416.39,-439.35C431.75,-415.83 450.81,-383.84 465.08,-357.72"/>
<polygon fill="red" stroke="red" points="468.12,-359.46 469.77,-349 461.95,-356.15 468.12,-359.46"/>
<text xml:space="preserve" text-anchor="middle" x="430.24" y="-400.29" font-family="Times,serif" font-size="10.00" fill="red">2.0/5</text>
</g>
<!-- i5&#45;&gt;i2 -->
<g id="edge11" class="edge">
<title>i5&#45;&gt;i2</title>
<path fill="none" stroke="black" d="M272.4,-296.3C257.8,-310.96 238.24,-333.64 224.28,-351.91"/>
<polygon fill="black" stroke="black" points="221.59,-349.67 218.45,-359.78 227.22,-353.83 221.59,-349.67"/>
<text xml:space="preserve" text-anchor="middle" x="245.72" y="-325.86" font-family="Times,serif" font-size="10.00">5</text>
</g>
<!-- i5&#45;&gt;i3 -->
<g id="edge12" class="edge">
<title>i5&#45;&gt;i3</title>
<path fill="none" stroke="black" d="M265.35,-277.68C225.71,-276.12 151.1,-278.01 105.87,-281.55"/>
<polygon fill="black" stroke="black" points="105.66,-278.05 96,-282.4 106.27,-285.02 105.66,-278.05"/>
<text xml:space="preserve" text-anchor="middle" x="182.99" y="-281.36" font-family="Times,serif" font-size="10.00">5</text>
</g>
<!-- i5&#45;&gt;i7 -->
<g id="edge13" class="edge">
<title>i5&#45;&gt;i7</title>
<path fill="none" stroke="black" d="M317,-290.17C343.59,-296.24 386.71,-303.46 422.66,-308.15"/>
<polygon fill="black" stroke="black" points="422.19,-311.62 432.55,-309.39 423.07,-304.67 422.19,-311.62"/>
<text xml:space="preserve" text-anchor="middle" x="367.21" y="-300.91" font-family="Times,serif" font-size="10.00">5</text>
</g>
<!-- i8 -->
<g id="node8" class="node">
<title>i8</title>
<ellipse fill="none" stroke="black" cx="419.3" cy="-169.36" rx="27" ry="21.57"/>
<text xml:space="preserve" text-anchor="middle" x="419.3" y="-171.11" font-family="Times,serif" font-size="10.00">i8 </text>
<text xml:space="preserve" text-anchor="middle" x="419.3" y="-159.86" font-family="Times,serif" font-size="10.00"> e: 2</text>
</g>
<!-- i5&#45;&gt;i8 -->
<g id="edge14" class="edge">
<title>i5&#45;&gt;i8</title>
<path fill="none" stroke="black" d="M314.1,-268.66C337.46,-250.98 373.96,-219.08 397.3,-196.14"/>
<polygon fill="black" stroke="black" points="399.62,-198.77 404.19,-189.21 394.66,-193.83 399.62,-198.77"/>
<text xml:space="preserve" text-anchor="middle" x="353.08" y="-234.15" font-family="Times,serif" font-size="10.00">5</text>
</g>
<!-- i6&#45;&gt;i2 -->
<g id="edge15" class="edge">
<title>i6&#45;&gt;i2</title>
<path fill="none" stroke="black" d="M187.85,-154.5C187.42,-198.35 193.84,-297.13 200.22,-348.62"/>
<polygon fill="black" stroke="black" points="196.71,-348.79 201.5,-358.24 203.65,-347.87 196.71,-348.79"/>
<text xml:space="preserve" text-anchor="middle" x="191.41" y="-253.31" font-family="Times,serif" font-size="10.00">5</text>
</g>
<!-- i9 -->
<g id="node9" class="node">
<title>i9</title>
<ellipse fill="none" stroke="black" cx="363.64" cy="-21.57" rx="27" ry="21.57"/>
<text xml:space="preserve" text-anchor="middle" x="363.64" y="-23.32" font-family="Times,serif" font-size="10.00">i9 </text>
<text xml:space="preserve" text-anchor="middle" x="363.64" y="-12.07" font-family="Times,serif" font-size="10.00"> e: 3</text>
</g>
<!-- i6&#45;&gt;i9 -->
<g id="edge16" class="edge">
<title>i6&#45;&gt;i9</title>
<path fill="none" stroke="black" d="M214.49,-122.67C246.6,-105.17 303.12,-69.19 336.63,-45.11"/>
<polygon fill="black" stroke="black" points="338.62,-47.99 344.62,-39.25 334.48,-42.34 338.62,-47.99"/>
<text xml:space="preserve" text-anchor="middle" x="272.94" y="-85.64" font-family="Times,serif" font-size="10.00">5</text>
</g>
<!-- i7&#45;&gt;i4 -->
<g id="edge17" class="edge">
<title>i7&#45;&gt;i4</title>
<path fill="none" stroke="black" d="M459.39,-344.2C444.03,-367.71 424.97,-399.71 410.7,-425.83"/>
<polygon fill="black" stroke="black" points="407.66,-424.08 406.01,-434.55 413.83,-427.4 407.66,-424.08"/>
<text xml:space="preserve" text-anchor="middle" x="432.42" y="-386.76" font-family="Times,serif" font-size="10.00">5</text>
</g>
<!-- i7&#45;&gt;i5 -->
<g id="edge18" class="edge">
<title>i7&#45;&gt;i5</title>
<path fill="none" stroke="black" d="M437.53,-298.01C404.58,-291.69 361.38,-285.15 330.64,-281.92"/>
<polygon fill="black" stroke="black" points="331.31,-278.46 321.02,-280.99 330.64,-285.43 331.31,-278.46"/>
<text xml:space="preserve" text-anchor="middle" x="381.46" y="-291.71" font-family="Times,serif" font-size="10.00">5</text>
</g>
<!-- i7&#45;&gt;i8 -->
<g id="edge19" class="edge">
<title>i7&#45;&gt;i8</title>
<path fill="none" stroke="black" d="M474.74,-274.58C465,-250.78 450.75,-220.27 439.02,-198.23"/>
<polygon fill="black" stroke="black" points="442.11,-196.57 434.23,-189.48 435.97,-199.93 442.11,-196.57"/>
<text xml:space="preserve" text-anchor="middle" x="454.26" y="-238.16" font-family="Times,serif" font-size="10.00">5</text>
</g>
<!-- i10 -->
<g id="node10" class="node">
<title>i10</title>
<ellipse fill="none" stroke="blue" cx="545.73" cy="-116.27" rx="42.07" ry="37.48"/>
<text xml:space="preserve" text-anchor="middle" x="545.73" y="-129.27" font-family="Times,serif" font-size="10.00" fill="blue">i10 ([&#39;v6&#39;]) </text>
<text xml:space="preserve" text-anchor="middle" x="545.73" y="-118.02" font-family="Times,serif" font-size="10.00" fill="blue"> c: 2.0/5 </text>
<text xml:space="preserve" text-anchor="middle" x="545.73" y="-106.77" font-family="Times,serif" font-size="10.00" fill="blue"> m: 2.0/5 </text>
<text xml:space="preserve" text-anchor="middle" x="545.73" y="-95.52" font-family="Times,serif" font-size="10.00" fill="blue"> e: 1</text>
</g>
<!-- i7&#45;&gt;i10 -->
<g id="edge20" class="edge">
<title>i7&#45;&gt;i10</title>
<path fill="none" stroke="red" d="M502.09,-275.89C513.43,-244.62 527.71,-198.87 536.99,-164.35"/>
<polygon fill="red" stroke="red" points="540.28,-165.59 539.43,-155.03 533.51,-163.82 540.28,-165.59"/>
<text xml:space="preserve" text-anchor="middle" x="509.04" y="-221.87" font-family="Times,serif" font-size="10.00" fill="red">2.0/5</text>
</g>
<!-- i8&#45;&gt;i5 -->
<g id="edge21" class="edge">
<title>i8&#45;&gt;i5</title>
<path fill="none" stroke="black" d="M397.25,-182.19C373.89,-199.87 337.39,-231.77 314.06,-254.71"/>
<polygon fill="black" stroke="black" points="311.73,-252.08 307.17,-261.64 316.7,-257.01 311.73,-252.08"/>
<text xml:space="preserve" text-anchor="middle" x="353.03" y="-220.2" font-family="Times,serif" font-size="10.00">5</text>
</g>
<!-- i8&#45;&gt;i7 -->
<g id="edge22" class="edge">
<title>i8&#45;&gt;i7</title>
<path fill="none" stroke="black" d="M423.99,-190.86C431.36,-211.07 445.13,-241.92 457.85,-267.36"/>
<polygon fill="black" stroke="black" points="454.68,-268.85 462.34,-276.18 460.92,-265.68 454.68,-268.85"/>
<text xml:space="preserve" text-anchor="middle" x="438.29" y="-230.86" font-family="Times,serif" font-size="10.00">5</text>
</g>
<!-- i8&#45;&gt;i9 -->
<g id="edge23" class="edge">
<title>i8&#45;&gt;i9</title>
<path fill="none" stroke="black" d="M416.28,-147.74C409.11,-122.2 393.38,-79.64 380.79,-51.08"/>
<polygon fill="black" stroke="black" points="384.1,-49.91 376.77,-42.27 377.73,-52.82 384.1,-49.91"/>
<text xml:space="preserve" text-anchor="middle" x="395.91" y="-101.16" font-family="Times,serif" font-size="10.00">5</text>
</g>
<!-- i8&#45;&gt;i10 -->
<g id="edge24" class="edge">
<title>i8&#45;&gt;i10</title>
<path fill="none" stroke="black" d="M445.79,-164.16C461.68,-158.78 482.29,-150.52 500.67,-142.31"/>
<polygon fill="black" stroke="black" points="501.87,-145.61 509.51,-138.27 498.96,-139.24 501.87,-145.61"/>
<text xml:space="preserve" text-anchor="middle" x="470.61" y="-154.99" font-family="Times,serif" font-size="10.00">5</text>
</g>
<!-- i9&#45;&gt;i6 -->
<g id="edge25" class="edge">
<title>i9&#45;&gt;i6</title>
<path fill="none" stroke="black" d="M339.54,-31.5C307.43,-49 250.91,-84.98 217.4,-109.06"/>
<polygon fill="black" stroke="black" points="215.41,-106.18 209.42,-114.92 219.55,-111.83 215.41,-106.18"/>
<text xml:space="preserve" text-anchor="middle" x="275.85" y="-72.03" font-family="Times,serif" font-size="10.00">5</text>
</g>
<!-- i9&#45;&gt;i8 -->
<g id="edge26" class="edge">
<title>i9&#45;&gt;i8</title>
<path fill="none" stroke="black" d="M366.67,-43.19C373.84,-68.73 389.57,-111.29 402.16,-139.85"/>
<polygon fill="black" stroke="black" points="398.84,-141.02 406.18,-148.66 405.21,-138.11 398.84,-141.02"/>
<text xml:space="preserve" text-anchor="middle" x="381.79" y="-93.27" font-family="Times,serif" font-size="10.00">5</text>
</g>
<!-- i9&#45;&gt;i10 -->
<g id="edge27" class="edge">
<title>i9&#45;&gt;i10</title>
<path fill="none" stroke="black" d="M383.14,-36.84C409.97,-53.42 459.07,-79.49 496.33,-97.31"/>
<polygon fill="black" stroke="black" points="494.59,-100.36 505.13,-101.46 497.58,-94.03 494.59,-100.36"/>
<text xml:space="preserve" text-anchor="middle" x="437.11" y="-68.83" font-family="Times,serif" font-size="10.00">5</text>
</g>
<!-- i10&#45;&gt;i7 -->
<g id="edge28" class="edge">
<title>i10&#45;&gt;i7</title>
<path fill="none" stroke="black" d="M529.38,-150.93C518.03,-182.08 503.64,-228.13 494.27,-262.94"/>
<polygon fill="black" stroke="black" points="490.95,-261.78 491.8,-272.35 497.72,-263.56 490.95,-261.78"/>
<text xml:space="preserve" text-anchor="middle" x="509.2" y="-208.69" font-family="Times,serif" font-size="10.00">5</text>
</g>
<!-- i10&#45;&gt;i8 -->
<g id="edge29" class="edge">
<title>i10&#45;&gt;i8</title>
<path fill="none" stroke="black" d="M505.03,-126.57C487.22,-133.26 466.68,-141.98 450.16,-149.87"/>
<polygon fill="black" stroke="black" points="448.73,-146.68 441.31,-154.24 451.83,-152.95 448.73,-146.68"/>
<text xml:space="preserve" text-anchor="middle" x="474.97" y="-139.97" font-family="Times,serif" font-size="10.00">5</text>
</g>
<!-- i10&#45;&gt;i9 -->
<g id="edge30" class="edge">
<title>i10&#45;&gt;i9</title>
<path fill="none" stroke="black" d="M512.72,-92.92C480.65,-74.28 432.14,-49.11 399.22,-34.04"/>
<polygon fill="black" stroke="black" points="401.06,-31.03 390.51,-30.15 398.21,-37.42 401.06,-31.03"/>
<text xml:space="preserve" text-anchor="middle" x="453.35" y="-65.23" font-family="Times,serif" font-size="10.00">5</text>
</g>
</g>
</svg>
